<svg width="765" height="173" viewBox="0 0 765 173" fill="none" xmlns="http://www.w3.org/2000/svg">
<path d="M109.343 123.691C107.991 124.818 105.456 126.339 101.738 128.254C98.1327 130.169 93.6823 131.859 88.387 133.324C83.0917 134.789 77.233 135.465 70.811 135.352C61.009 135.127 52.221 133.38 44.447 130.113C36.7857 126.733 30.251 122.17 24.843 116.424C19.5477 110.678 15.4917 104.087 12.675 96.651C9.85833 89.215 8.45 81.272 8.45 72.822C8.45 63.358 9.85833 54.6827 12.675 46.796C15.6043 38.9093 19.7167 32.093 25.012 26.347C30.42 20.601 36.842 16.1507 44.278 12.996C51.714 9.84133 59.9387 8.264 68.952 8.264C77.2893 8.264 84.669 9.39066 91.091 11.644C97.513 13.8973 102.752 16.3197 106.808 18.911L97.175 42.064C94.3583 39.9233 90.584 37.7263 85.852 35.473C81.2327 33.107 75.881 31.924 69.797 31.924C65.065 31.924 60.502 32.938 56.108 34.966C51.8267 36.8813 47.996 39.6417 44.616 43.247C41.3487 46.8523 38.7573 51.0773 36.842 55.922C34.9267 60.654 33.969 65.8367 33.969 71.47C33.969 77.4413 34.814 82.9057 36.504 87.863C38.3067 92.8203 40.8417 97.1017 44.109 100.707C47.3763 104.2 51.2633 106.904 55.77 108.819C60.3893 110.734 65.572 111.692 71.318 111.692C77.9653 111.692 83.655 110.622 88.387 108.481C93.119 106.34 96.7243 104.087 99.203 101.721L109.343 123.691ZM148.427 136.028C141.554 136.028 135.301 134.676 129.668 131.972C124.147 129.155 119.753 124.874 116.486 119.128C113.219 113.382 111.585 106.059 111.585 97.158C111.585 88.8207 113.275 81.61 116.655 75.526C120.035 69.442 124.485 64.7663 130.006 61.499C135.527 58.119 141.385 56.429 147.582 56.429C154.905 56.429 160.426 57.6683 164.144 60.147C167.975 62.513 171.129 65.1607 173.608 68.09L172.594 70.963L174.791 60.147H196.761V134H173.101V117.945L174.96 123.015C174.735 123.015 174.059 123.691 172.932 125.043C171.805 126.282 170.115 127.803 167.862 129.606C165.721 131.296 163.017 132.761 159.75 134C156.595 135.352 152.821 136.028 148.427 136.028ZM155.187 116.762C158.004 116.762 160.539 116.368 162.792 115.579C165.045 114.678 167.017 113.438 168.707 111.861C170.397 110.171 171.862 108.087 173.101 105.608V87.525C172.2 85.0463 170.848 82.962 169.045 81.272C167.242 79.4693 165.102 78.1173 162.623 77.216C160.144 76.202 157.384 75.695 154.342 75.695C150.962 75.695 147.807 76.5963 144.878 78.399C142.061 80.089 139.808 82.455 138.118 85.497C136.428 88.539 135.583 92.0317 135.583 95.975C135.583 99.9183 136.484 103.467 138.287 106.622C140.09 109.777 142.456 112.255 145.385 114.058C148.427 115.861 151.694 116.762 155.187 116.762ZM254.771 136.028C250.377 136.028 246.04 135.239 241.758 133.662C237.59 131.972 234.097 129.606 231.28 126.564L231.956 119.635V169.49H208.465V58.457H228.745L232.125 72.822L230.266 67.752C234.097 64.4847 238.378 61.7807 243.11 59.64C247.842 57.4993 253.307 56.429 259.503 56.429C266.376 56.429 272.516 58.0627 277.924 61.33C283.332 64.4847 287.557 69.104 290.599 75.188C293.754 81.1593 295.331 88.37 295.331 96.82C295.331 105.157 293.585 112.255 290.092 118.114C286.6 123.973 281.811 128.423 275.727 131.465C269.643 134.507 262.658 136.028 254.771 136.028ZM250.039 117.438C253.87 117.438 257.363 116.593 260.517 114.903C263.785 113.213 266.376 110.847 268.291 107.805C270.319 104.65 271.333 101.101 271.333 97.158C271.333 92.9893 270.432 89.384 268.629 86.342C266.939 83.1873 264.573 80.765 261.531 79.075C258.602 77.2723 255.335 76.371 251.729 76.371C248.575 76.371 245.758 76.8217 243.279 77.723C240.913 78.5117 238.773 79.751 236.857 81.441C235.055 83.0183 233.477 85.0463 232.125 87.525V105.608C233.027 107.974 234.322 110.058 236.012 111.861C237.702 113.664 239.73 115.072 242.096 116.086C244.575 116.987 247.223 117.438 250.039 117.438ZM392.745 27.699H416.405V59.809H434.319V78.23H416.405V134H392.745V78.23H381.253V59.809H392.745V27.699ZM470.748 136.028C463.876 136.028 457.623 134.676 451.989 131.972C446.469 129.155 442.075 124.874 438.807 119.128C435.54 113.382 433.906 106.059 433.906 97.158C433.906 88.8207 435.596 81.61 438.976 75.526C442.356 69.442 446.807 64.7663 452.327 61.499C457.848 58.119 463.707 56.429 469.903 56.429C477.227 56.429 482.747 57.6683 486.465 60.147C490.296 62.513 493.451 65.1607 495.929 68.09L494.915 70.963L497.112 60.147H519.082V134H495.422V117.945L497.281 123.015C497.056 123.015 496.38 123.691 495.253 125.043C494.127 126.282 492.437 127.803 490.183 129.606C488.043 131.296 485.339 132.761 482.071 134C478.917 135.352 475.142 136.028 470.748 136.028ZM477.508 116.762C480.325 116.762 482.86 116.368 485.113 115.579C487.367 114.678 489.338 113.438 491.028 111.861C492.718 110.171 494.183 108.087 495.422 105.608V87.525C494.521 85.0463 493.169 82.962 491.366 81.272C489.564 79.4693 487.423 78.1173 484.944 77.216C482.466 76.202 479.705 75.695 476.663 75.695C473.283 75.695 470.129 76.5963 467.199 78.399C464.383 80.089 462.129 82.455 460.439 85.497C458.749 88.539 457.904 92.0317 457.904 95.975C457.904 99.9183 458.806 103.467 460.608 106.622C462.411 109.777 464.777 112.255 467.706 114.058C470.748 115.861 474.016 116.762 477.508 116.762ZM530.787 0.658994H554.447V134H530.787V0.658994ZM566.138 60.147H589.798V134H566.138V60.147ZM565.631 33.952C565.631 30.4593 566.983 27.5863 569.687 25.333C572.504 23.0797 575.489 21.953 578.644 21.953C581.799 21.953 584.672 23.0797 587.263 25.333C589.967 27.5863 591.319 30.4593 591.319 33.952C591.319 37.4447 589.967 40.3177 587.263 42.571C584.672 44.7117 581.799 45.782 578.644 45.782C575.489 45.782 572.504 44.7117 569.687 42.571C566.983 40.3177 565.631 37.4447 565.631 33.952ZM625.487 135.521C619.403 135.521 613.714 134.451 608.418 132.31C603.236 130.169 598.842 127.184 595.236 123.353L605.038 110.34C608.644 113.607 611.967 115.973 615.009 117.438C618.164 118.79 620.981 119.466 623.459 119.466C625.375 119.466 627.065 119.297 628.529 118.959C630.107 118.508 631.346 117.889 632.247 117.1C633.149 116.199 633.599 115.072 633.599 113.72C633.599 111.805 632.811 110.284 631.233 109.157C629.769 108.03 627.853 107.129 625.487 106.453C623.121 105.664 620.586 104.876 617.882 104.087C611.122 101.946 606.221 98.848 603.179 94.792C600.25 90.6233 598.785 86.1167 598.785 81.272C598.785 77.554 599.743 73.836 601.658 70.118C603.686 66.2873 606.841 63.1327 611.122 60.654C615.516 58.0627 621.15 56.767 628.022 56.767C634.219 56.767 639.458 57.3867 643.739 58.626C648.021 59.8653 652.077 61.8933 655.907 64.71L646.95 78.568C644.81 76.878 642.387 75.4697 639.683 74.343C637.092 73.1037 634.67 72.4277 632.416 72.315C630.388 72.2023 628.642 72.4277 627.177 72.991C625.825 73.5543 624.755 74.2867 623.966 75.188C623.178 76.0893 622.783 77.047 622.783 78.061C622.671 80.2017 623.459 81.8917 625.149 83.131C626.952 84.3703 629.205 85.328 631.909 86.004C634.613 86.68 637.261 87.4687 639.852 88.37C643.458 89.4967 646.556 91.0177 649.147 92.933C651.739 94.8483 653.71 97.158 655.062 99.862C656.527 102.453 657.259 105.608 657.259 109.326C657.259 113.833 656.076 118.114 653.71 122.17C651.457 126.113 647.964 129.324 643.232 131.803C638.613 134.282 632.698 135.521 625.487 135.521ZM700.737 136.028C691.724 136.028 684.063 134.338 677.753 130.958C671.557 127.578 666.825 122.902 663.557 116.931C660.29 110.96 658.656 104.087 658.656 96.313C658.656 88.877 660.572 82.1733 664.402 76.202C668.233 70.2307 673.359 65.4987 679.781 62.006C686.203 58.4007 693.358 56.598 701.244 56.598C711.835 56.598 720.51 59.6963 727.27 65.893C734.143 71.977 738.593 80.8213 740.621 92.426L683.161 110.678L677.922 97.834L719.496 83.807L714.595 86.004C713.694 83.0747 712.06 80.5397 709.694 78.399C707.441 76.1457 704.005 75.019 699.385 75.019C695.893 75.019 692.794 75.864 690.09 77.554C687.499 79.1313 685.471 81.441 684.006 84.483C682.654 87.4123 681.978 90.905 681.978 94.961C681.978 99.5803 682.823 103.467 684.513 106.622C686.203 109.664 688.513 111.974 691.442 113.551C694.372 115.128 697.639 115.917 701.244 115.917C703.836 115.917 706.314 115.466 708.68 114.565C711.159 113.664 713.581 112.481 715.947 111.016L726.425 128.592C722.482 130.845 718.201 132.648 713.581 134C709.075 135.352 704.793 136.028 700.737 136.028ZM735.506 121.832C735.506 118.339 736.746 115.41 739.224 113.044C741.816 110.678 744.632 109.495 747.674 109.495C750.491 109.495 753.139 110.678 755.617 113.044C758.209 115.41 759.504 118.339 759.504 121.832C759.504 125.55 758.209 128.536 755.617 130.789C753.139 132.93 750.491 134 747.674 134C744.632 134 741.816 132.93 739.224 130.789C736.746 128.536 735.506 125.55 735.506 121.832Z" fill="white"/>
<rect x="317.927" y="115.055" width="33.1768" height="5.80594" rx="2.90297" fill="white"/>
<rect x="317.927" y="122.519" width="33.1768" height="4.97652" rx="2.48826" fill="white"/>
<rect x="317.927" y="129.155" width="33.1768" height="5.80594" rx="2.90297" fill="white"/>
<path fill-rule="evenodd" clip-rule="evenodd" d="M353.826 100.486C361.067 94.9355 365.737 86.1972 365.737 76.3683C365.737 59.5964 352.14 46 335.368 46C318.596 46 305 59.5964 305 76.3683C305 85.2292 308.795 93.2038 314.848 98.7552V108.242C314.848 111.003 317.087 113.242 319.848 113.242H348.826C351.587 113.242 353.826 111.003 353.826 108.242V100.486Z" fill="#FECA57"/>
<path d="M309 40L334.616 46.6514L361 40V60H309V40Z" fill="#343434"/>
<path fill-rule="evenodd" clip-rule="evenodd" d="M373.291 32H375.396V55.7755C376.325 56.1255 376.974 56.9247 376.974 57.8547C376.974 58.5962 376.561 59.2546 375.923 59.6684L377.652 66.1211C377.822 66.7563 377.343 67.3799 376.686 67.3799H372.001C371.343 67.3799 370.864 66.7563 371.035 66.1211L372.763 59.6686C372.125 59.2548 371.712 58.5963 371.712 57.8547C371.712 56.9246 372.361 56.1253 373.291 55.7753V32Z" fill="#5E5E5E"/>
<path d="M335.251 48.8657L390.584 34.3162C392.577 33.7923 392.571 30.9618 390.577 30.4457L335.244 16.1301C334.914 16.0448 334.568 16.0451 334.238 16.1311L279.359 30.4467C277.369 30.9657 277.364 33.7883 279.351 34.3152L334.23 48.8647C334.565 48.9534 334.917 48.9537 335.251 48.8657Z" fill="#424242"/>
<path d="M323 80C326.561 84.5277 337.146 90.8666 351 80" stroke="#2E86DE" stroke-width="7"/>
</svg>
