<svg width="317" height="317" viewBox="0 0 317 317" fill="none" xmlns="http://www.w3.org/2000/svg">
<path d="M171.708 118.875H145.292V92.4583H171.708M171.708 224.542H145.292V145.292H171.708M158.5 26.4167C141.155 26.4167 123.979 29.8331 107.954 36.4709C91.9288 43.1087 77.368 52.8379 65.103 65.103C40.3325 89.8734 26.4167 123.469 26.4167 158.5C26.4167 193.531 40.3325 227.127 65.103 251.897C77.368 264.162 91.9288 273.891 107.954 280.529C123.979 287.167 141.155 290.583 158.5 290.583C193.531 290.583 227.127 276.667 251.897 251.897C276.667 227.127 290.583 193.531 290.583 158.5C290.583 141.155 287.167 123.979 280.529 107.954C273.891 91.9288 264.162 77.3681 251.897 65.103C239.632 52.8379 225.071 43.1087 209.046 36.4709C193.021 29.8331 175.845 26.4167 158.5 26.4167Z" fill="white"/>
</svg>
