<svg width="147" height="65" viewBox="0 0 147 65" fill="none" xmlns="http://www.w3.org/2000/svg">
<path d="M0.0750005 64V1.43999H18.775C25.065 1.43999 30.42 2.375 34.84 4.245C39.26 6.115 42.8017 8.60833 45.465 11.725C48.185 14.8417 50.1683 18.3267 51.415 22.18C52.6617 26.0333 53.285 29.915 53.285 33.825C53.285 38.4717 52.435 42.665 50.735 46.405C49.0917 50.0883 46.825 53.2617 43.935 55.925C41.045 58.5317 37.7017 60.5433 33.905 61.96C30.1083 63.32 26.085 64 21.835 64H0.0750005ZM12.4 52.1H19.71C22.8267 52.1 25.66 51.7033 28.21 50.91C30.76 50.06 32.9417 48.8417 34.755 47.255C36.625 45.6683 38.0417 43.685 39.005 41.305C40.025 38.8683 40.535 36.0917 40.535 32.975C40.535 28.895 39.855 25.58 38.495 23.03C37.1917 20.4233 35.5483 18.4117 33.565 16.995C31.6383 15.5783 29.655 14.615 27.615 14.105C25.575 13.5383 23.8467 13.255 22.43 13.255H12.4V52.1ZM109.851 51.93H129.231V64H93.7012L109.851 51.93ZM61.8262 32.805C61.8262 28.4983 62.6478 24.4183 64.2912 20.565C65.9345 16.7117 68.2012 13.3117 71.0912 10.365C74.0378 7.36166 77.4378 5.01 81.2912 3.31C85.1445 1.61 89.2812 0.759999 93.7012 0.759999C98.0645 0.759999 102.173 1.61 106.026 3.31C109.88 5.01 113.28 7.36166 116.226 10.365C119.23 13.3117 121.553 16.7117 123.196 20.565C124.896 24.4183 125.746 28.4983 125.746 32.805C125.746 37.225 124.896 41.3617 123.196 45.215C121.553 49.0683 119.23 52.4683 116.226 55.415C113.28 58.305 109.88 60.5717 106.026 62.215C102.173 63.8583 98.0645 64.68 93.7012 64.68C89.2812 64.68 85.1445 63.8583 81.2912 62.215C77.4378 60.5717 74.0378 58.305 71.0912 55.415C68.2012 52.4683 65.9345 49.0683 64.2912 45.215C62.6478 41.3617 61.8262 37.225 61.8262 32.805ZM74.5762 32.805C74.5762 35.525 75.0578 38.1033 76.0212 40.54C77.0412 42.92 78.4295 45.045 80.1862 46.915C81.9995 48.7283 84.0678 50.145 86.3912 51.165C88.7712 52.185 91.3495 52.695 94.1262 52.695C96.7895 52.695 99.2545 52.185 101.521 51.165C103.845 50.145 105.856 48.7283 107.556 46.915C109.256 45.1017 110.588 43.005 111.551 40.625C112.515 38.1883 112.996 35.5817 112.996 32.805C112.996 30.085 112.486 27.535 111.466 25.155C110.503 22.7183 109.143 20.5933 107.386 18.78C105.686 16.9667 103.675 15.55 101.351 14.53C99.0278 13.51 96.5062 13 93.7862 13C91.0662 13 88.5445 13.51 86.2212 14.53C83.8978 15.55 81.8578 16.9667 80.1012 18.78C78.3445 20.5933 76.9845 22.7183 76.0212 25.155C75.0578 27.535 74.5762 30.085 74.5762 32.805ZM134.72 57.88C134.72 56.1233 135.344 54.65 136.59 53.46C137.894 52.27 139.31 51.675 140.84 51.675C142.257 51.675 143.589 52.27 144.835 53.46C146.139 54.65 146.79 56.1233 146.79 57.88C146.79 59.75 146.139 61.2517 144.835 62.385C143.589 63.4617 142.257 64 140.84 64C139.31 64 137.894 63.4617 136.59 62.385C135.344 61.2517 134.72 59.75 134.72 57.88Z" fill="#4DCA8E"/>
</svg>
